<?xml version="1.0" encoding="utf-8"?>
<!-- Generator: Adobe Illustrator 16.0.0, SVG Export Plug-In . SVG Version: 6.00 Build 0)  -->
<!DOCTYPE svg PUBLIC "-//W3C//DTD SVG 1.1//EN" "http://www.w3.org/Graphics/SVG/1.1/DTD/svg11.dtd">
<svg version="1.1" id="Layer_1" xmlns="http://www.w3.org/2000/svg" xmlns:xlink="http://www.w3.org/1999/xlink" x="0px" y="0px"
	 width="250px" height="250px" viewBox="-20 -20 250 250" enable-background="new -20 -20 250 250" xml:space="preserve">
<title>HTML5 Logo</title>
<polygon fill="#E44D26" points="44.151,193.133 30.611,41.27 179.389,41.27 165.835,193.109 104.909,210 "/>
<polygon fill="#F16529" points="105,197.09 154.23,183.441 165.814,53.687 105,53.687 "/>
<polygon fill="#EBEBEB" points="105,110.011 80.354,110.011 78.651,90.938 105,90.938 105,72.313 104.936,72.313 58.296,72.313 
	58.742,77.31 63.32,128.637 105,128.637 "/>
<polygon fill="#EBEBEB" points="105,158.383 104.918,158.404 84.175,152.804 82.849,137.949 72.77,137.949 64.152,137.949 
	66.762,167.193 104.914,177.785 105,177.762 "/>
<path d="M44.454,0h9.465v9.352h8.658V0h9.465v28.319h-9.465v-9.483h-8.659v9.483h-9.465L44.454,0L44.454,0z"/>
<path d="M84.49,9.391h-8.333V0h26.135v9.391h-8.336v18.928H84.49L84.49,9.391L84.49,9.391z"/>
<path d="M106.439,0h9.87l6.071,9.95L128.445,0h9.873v28.319h-9.426V14.283l-6.512,10.069h-0.163l-6.517-10.069v14.036h-9.262V0z"/>
<path d="M143.029,0h9.469v18.958h13.311v9.36h-22.779V0z"/>
<polygon fill="#FFFFFF" points="104.936,110.011 104.936,128.637 127.871,128.637 125.709,152.792 104.936,158.398 104.936,177.775 
	143.119,167.193 143.398,164.047 147.775,115.012 148.23,110.011 143.211,110.011 "/>
<polygon fill="#FFFFFF" points="104.936,72.313 104.936,83.881 104.936,90.893 104.936,90.938 149.865,90.938 149.865,90.938 
	149.925,90.938 150.299,86.752 151.146,77.31 151.592,72.313 "/>
</svg>
