<?xml version="1.0" encoding="utf-8"?>
<!-- Generator: Adobe Illustrator 16.0.0, SVG Export Plug-In . SVG Version: 6.00 Build 0)  -->
<!DOCTYPE svg PUBLIC "-//W3C//DTD SVG 1.1//EN" "http://www.w3.org/Graphics/SVG/1.1/DTD/svg11.dtd">
<svg version="1.1" id="Layer_1" xmlns="http://www.w3.org/2000/svg" xmlns:xlink="http://www.w3.org/1999/xlink" x="0px" y="0px"
	 width="250px" height="250px" viewBox="136.798 -60.875 250 250" enable-background="new 136.798 -60.875 250 250"
	 xml:space="preserve">
<path fill="#131B28" d="M245.15,56.238l0-0.002l-1.472,5.218L245.15,56.238L245.15,56.238z"/>
<path fill="#131B28" d="M252.723,67.567l-1.623-0.01L252.723,67.567z"/>
<path fill="#131B28" d="M252.306,75.36h0.002l-9.722,0.035L252.306,75.36L252.306,75.36z"/>
<path fill="#131B28" d="M254.344,67.577l-1.623-0.01L254.344,67.577z"/>
<path fill="#131B28" d="M253.158,74.698l1.693-6.458L253.158,74.698L253.158,74.698L253.158,74.698z"/>
<path fill="#131B28" d="M288.95,44.958l-3.154,14.83L288.95,44.958z"/>
<path fill="#131B28" d="M280.841,44.958l-2.395,11.078L280.841,44.958L280.841,44.958z"/>
<path fill="#131B28" d="M288.409,44.29h-6.745c-0.374,0-0.746,0.3-0.826,0.667l-2.395,11.079l-2.395,11.081
	c-0.079,0.365-0.45,0.664-0.824,0.664h-4.093h-0.682c-4.724,0-4.178-3.267-3.211-7.743c0.011-0.045,0.02-0.089,0.029-0.135
	l0.106-0.564c0.006-0.037,0.014-0.073,0.02-0.106l0.216-1.148l0.23-1.231c0.07-0.371,0.177-0.914,0.247-1.254l1.089-5.319
	l1.09-5.319c0.074-0.367-0.171-0.668-0.545-0.668h-6.924c-0.375,0-0.745,0.301-0.822,0.667l-1.489,7.063l-1.489,7.062
	c-0.001,0.003-0.001,0.007-0.002,0.01l-0.139,0.657c-1.714,7.829-1.26,15.293,8.06,15.528c0.152,0.004,0.27,0.005,0.27,0.005h14.629
	c0.374,0,0.744-0.3,0.823-0.667l3.154-14.828l3.155-14.83C289.027,44.59,288.784,44.291,288.409,44.29L288.409,44.29z"/>
<path fill="#131B28" d="M315.32,67.857c0.375,0,0.62,0.3,0.545,0.667l-0.655,3.201"/>
<path fill="#131B28" d="M314.555,74.929l0.655-3.203L314.555,74.929C314.555,74.929,314.555,74.929,314.555,74.929L314.555,74.929z"
	/>
<path fill="#131B28" d="M313.734,75.603c0.001,0,0.003-0.001,0.003-0.001c-1.985,0.016-7.95,0.062-12.434,0.062
	C306.759,75.663,313.733,75.603,313.734,75.603L313.734,75.603z"/>
<path fill="#131B28" d="M297.279,63.733c-0.005-0.35,0.394-0.954,0.769-0.954l-0.843-0.014
	C296.824,66.583,297.279,63.733,297.279,63.733z"/>
<path fill="#131B28" d="M301.917,75.661c-0.043,0-0.087,0-0.13,0.001C301.83,75.661,301.874,75.661,301.917,75.661z"/>
<path fill="#131B28" d="M315.32,67.857c0.375,0,0.62,0.3,0.545,0.667l-0.655,3.201l-0.106,0.522"/>
<path fill="#131B28" d="M305.111,75.653h-0.027H305.111z"/>
<path fill="#131B28" d="M303.455,75.659h-0.097H303.455z"/>
<path fill="#131B28" d="M302.949,75.66c-0.054,0-0.105,0-0.158,0.001C302.844,75.66,302.896,75.66,302.949,75.66z"/>
<path fill="#131B28" d="M302.436,75.661h-0.14H302.436z"/>
<path fill="#131B28" d="M303.358,75.659c-0.137,0-0.273,0.001-0.408,0.001C303.084,75.66,303.222,75.659,303.358,75.659z"/>
<path fill="#131B28" d="M305.084,75.653c-0.546,0.003-1.091,0.005-1.627,0.006C303.993,75.658,304.539,75.656,305.084,75.653z"/>
<path fill="#131B28" d="M313.738,75.601L313.738,75.601c-1.454,0.013-5.046,0.039-8.63,0.053
	C308.69,75.641,312.282,75.613,313.738,75.601z"/>
<path fill="#131B28" d="M314.555,74.93l0.549-2.682l-0.549,2.684C314.555,74.931,314.555,74.931,314.555,74.93L314.555,74.93z"/>
<path fill="#131B28" d="M302.791,75.661h-0.356H302.791z"/>
<path fill="#131B28" d="M301.785,75.662h-0.481H301.785z"/>
<path fill="#131B28" d="M302.295,75.661h-0.38H302.295z"/>
<path fill="#131B28" d="M203.622,63.814l1.048-4.645l-1.199,5.31l-1.149,5.408l1.007-4.741
	C203.407,64.778,203.539,64.18,203.622,63.814L203.622,63.814z"/>
<path fill="#131B28" d="M216.163,44.212h-7.408c-0.375,0-0.749,0.299-0.833,0.664l-0.703,3.1l-0.702,3.102
	c-0.083,0.365,0.156,0.664,0.531,0.664h7.465c0.375,0,0.747-0.299,0.828-0.665l0.678-3.101l0.679-3.098v-0.001
	C216.779,44.512,216.538,44.212,216.163,44.212L216.163,44.212z"/>
<path fill="#131B28" d="M214.551,54.525L214.551,54.525l-2.173,10.051L214.551,54.525z"/>
<path fill="#131B28" d="M193.031,87.83c0,0,3.734,0.048,6.107,0.048c-1.803,0-4.781-0.033-6.11-0.049
	C193.03,87.829,193.031,87.83,193.031,87.83L193.031,87.83z"/>
<path fill="#131B28" d="M205.717,54.524l-1.049,4.645L205.717,54.524z"/>
<path fill="#131B28" d="M214.015,53.86h-7.466c-0.374,0-0.749,0.299-0.831,0.665l-1.049,4.645l-1.048,4.645
	c-0.083,0.365-0.214,0.965-0.292,1.332l-1.008,4.741l-1.007,4.741c-0.079,0.365-0.239,0.956-0.359,1.311c0,0-1.395,4.15-3.74,4.104
	c-0.1-0.002-0.197-0.003-0.293-0.006c-1.137-0.021-2.029-0.037-2.029-0.037h-0.001c-0.374-0.006-0.75,0.286-0.836,0.649
	l-0.775,3.255l-0.773,3.253c-0.087,0.364,0.148,0.664,0.521,0.671c1.33,0.016,4.308,0.049,6.111,0.049
	c5.857,0,8.945-3.245,10.924-12.584l2.316-10.717l2.173-10.052C214.631,54.159,214.389,53.86,214.015,53.86L214.015,53.86z"/>
<path fill="#131B28" d="M320.076,75.282c-0.375,0-0.617-0.3-0.538-0.668l5.616-26.308"/>
<path fill="#131B28" d="M327.882,74.614l2.271-11.229L327.882,74.614z"/>
<path fill="#131B28" d="M319.62,74.949c-0.046-0.183-0.02-0.632,0.061-0.999l2.665-12.488l-2.809,13.153
	c-0.079,0.367,0.164,0.667,0.539,0.667h0.682C320.383,75.282,319.664,75.133,319.62,74.949L319.62,74.949z"/>
<path fill="#131B28" d="M327.439,75.133c-0.204,0.082-0.678,0.149-1.052,0.149h0.682c0.375,0,0.742-0.3,0.816-0.668l0.135-0.667
	C327.945,74.314,327.643,75.05,327.439,75.133z"/>
<path fill="#131B28" d="M329.02,69l1.003-4.956c-0.001,0.003-0.001,0.008-0.002,0.01L329.02,69L329.02,69z"/>
<path fill="#131B28" d="M351.181,50.07l0.31,1.278c0.086,0.366-0.15,0.663-0.524,0.664"/>
<path fill="#131B28" d="M328.019,73.947l1-4.946L328.019,73.947z"/>
<path fill="#131B28" d="M350.873,48.76l0.307,1.31L350.873,48.76z"/>
<path fill="#131B28" d="M330.022,64.044c0.074-0.367,0.198-0.961,0.275-1.324l1.071-5.017l-1.213,5.683L330.022,64.044
	L330.022,64.044z"/>
<path fill="#131B28" d="M325.246,47.876c-0.074,0.354-0.169,0.801-0.232,1.097l-2.665,12.488l2.808-13.154L325.246,47.876
	L325.246,47.876z"/>
<path fill="#131B28" d="M351.489,51.348l-0.309-1.278l-0.307-1.31l-0.155-0.663c-0.606-2.356-2.387-3.716-6.252-3.716l-6.018-0.007
	l-5.542-0.007h-0.476h-5.761c-0.374,0-0.745,0.299-0.822,0.666l0,0l-0.276,1.303l-0.325,1.539l-0.091,0.431l-2.808,13.155
	l-2.666,12.487c-0.079,0.368-0.105,0.817-0.061,1c0.045,0.184,0.764,0.334,1.139,0.334h5.627c0.375,0,0.849-0.067,1.052-0.15
	c0.204-0.083,0.506-0.818,0.581-1.185L329.019,69l1.002-4.947c0-0.002,0.001-0.006,0.001-0.009l0.134-0.659l1.214-5.683l1.07-5.019
	c0.08-0.365,0.449-0.663,0.822-0.664l17.702-0.009C351.338,52.011,351.574,51.713,351.489,51.348L351.489,51.348z"/>
<path fill="#131B28" d="M374.279,39.79c-0.375,0.002-0.988,0.004-1.363,0.004h-5.666c-0.375,0-0.854,0.253-1.065,0.563
	l-12.529,18.356c-0.212,0.31-0.453,0.264-0.536-0.101l-0.922-4.044c-0.083-0.366-0.459-0.664-0.833-0.664h-8.056
	c-0.374,0-0.597,0.293-0.494,0.654l3.609,12.644c0.103,0.36,0.11,0.953,0.018,1.315l-1.573,6.12c-0.093,0.363,0.138,0.66,0.513,0.66
	h7.96c0.375,0,0.758-0.297,0.851-0.66l1.574-6.12c0.093-0.362,0.354-0.905,0.579-1.204l20.341-26.998
	c0.226-0.299,0.103-0.542-0.271-0.54L374.279,39.79L374.279,39.79z"/>
<path fill="#131B28" d="M310.285,55.625v-0.007c-0.048,0.406-0.423,0.705-0.797,0.705h-10.212c-0.353,0-0.533-0.24-0.48-0.536
	c0.003-0.009,0.004-0.017,0.01-0.024c0,0-0.004,0.001-0.007,0.003c0.002-0.012,0.002-0.022,0.006-0.034c0,0,0.02-0.072,0.046-0.174
	c0.976-2.593,2.962-4.295,6.696-4.295C309.75,51.262,310.571,53.316,310.285,55.625L310.285,55.625z M307.289,43.837
	c-13.108,0-16.214,7.957-17.957,15.987c-1.742,8.185-1.592,15.838,11.972,15.838h0.481c0.044-0.001,0.087-0.001,0.13-0.001h0.38
	h0.14h0.355c0.053-0.001,0.105-0.001,0.159-0.001c0.135,0,0.271-0.001,0.408-0.001h0.097c0.537-0.001,1.082-0.003,1.627-0.005h0.027
	c3.582-0.015,7.175-0.041,8.63-0.053c0.372-0.006,0.736-0.306,0.813-0.669l0.549-2.685l0.106-0.521l0.655-3.201
	c0.075-0.367-0.17-0.668-0.544-0.668h-12.195c-4.85,0-6.29-1.289-5.76-5.078h19.494l-0.002,0.002c0.005,0,0.009-0.002,0.013-0.002
	c0.31-0.005,0.597-0.219,0.71-0.503c0.021-0.055,0.04-0.111,0.047-0.17l-0.002,0.002C320.518,51.191,319.688,43.838,307.289,43.837
	L307.289,43.837z"/>
<path fill="#131B28" d="M245.335,55.583l-0.185,0.653c0,0.002,0,0.002,0,0.002l-1.472,5.216l-1.472,5.215
	c-0.101,0.36-0.491,0.655-0.867,0.655h-7.79c-5.909,0-7.349-4.622-5.909-11.439c1.438-6.973,4.259-11.308,10.076-11.747
	C245.664,43.54,247.254,49.13,245.335,55.583L245.335,55.583z M250.677,66.924c0,0,3.673-8.918,4.508-14.07
	c1.137-6.896-2.315-16.896-15.652-16.896c-13.26,0-19.019,9.548-21.215,19.928C216.122,66.34,219,75.51,232.185,75.435l10.401-0.039
	l9.722-0.035c0.375-0.003,0.757-0.3,0.853-0.662l1.693-6.459c0.095-0.362-0.134-0.661-0.508-0.663l-1.623-0.009l-1.623-0.01
	c-0.319-0.003-0.501-0.208-0.462-0.482C250.645,67.026,250.656,66.976,250.677,66.924L250.677,66.924z"/>
<path fill="#131B28" d="M316.322,60.955c0,0.247-0.2,0.447-0.448,0.447c-0.247,0-0.447-0.201-0.447-0.447
	c0-0.247,0.2-0.447,0.447-0.447C316.12,60.509,316.322,60.708,316.322,60.955z"/>
<path fill="#0868AC" d="M149.424,49.358c-3.661,5.263-3.206,12.109-0.409,17.701c0.066,0.134,0.136,0.266,0.205,0.397
	c0.044,0.083,0.085,0.169,0.131,0.252c0.026,0.049,0.054,0.098,0.082,0.145c0.047,0.089,0.096,0.174,0.146,0.261
	c0.086,0.153,0.176,0.306,0.267,0.458c0.051,0.084,0.101,0.167,0.153,0.251c0.1,0.163,0.204,0.323,0.31,0.484
	c0.043,0.069,0.086,0.138,0.132,0.204c0.146,0.218,0.295,0.434,0.448,0.648c0.004,0.005,0.008,0.011,0.013,0.017
	c0.024,0.034,0.051,0.067,0.076,0.102c0.133,0.184,0.271,0.364,0.409,0.544c0.051,0.065,0.103,0.131,0.154,0.195
	c0.124,0.156,0.25,0.311,0.377,0.465c0.048,0.059,0.097,0.116,0.145,0.173c0.172,0.203,0.348,0.405,0.526,0.602
	c0.003,0.003,0.008,0.008,0.011,0.011c0.008,0.009,0.014,0.014,0.02,0.022c0.175,0.191,0.354,0.378,0.536,0.564
	c0.056,0.058,0.114,0.116,0.171,0.173c0.141,0.142,0.284,0.28,0.428,0.419c0.059,0.056,0.117,0.112,0.175,0.166
	c0.192,0.182,0.387,0.359,0.585,0.533c0.003,0.003,0.006,0.006,0.009,0.008c0.034,0.029,0.069,0.059,0.102,0.087
	c0.175,0.151,0.354,0.302,0.532,0.448c0.073,0.06,0.147,0.118,0.221,0.177c0.146,0.117,0.294,0.232,0.444,0.346
	c0.079,0.061,0.157,0.121,0.237,0.181c0.165,0.12,0.33,0.24,0.498,0.356c0.062,0.044,0.12,0.087,0.182,0.129
	c0.017,0.012,0.032,0.024,0.049,0.035c0.159,0.109,0.321,0.215,0.483,0.32c0.07,0.046,0.138,0.095,0.209,0.139
	c0.249,0.158,0.502,0.313,0.757,0.464c0.069,0.04,0.139,0.079,0.209,0.118c0.188,0.108,0.376,0.215,0.568,0.319
	c0.104,0.056,0.21,0.107,0.314,0.161c0.136,0.07,0.27,0.143,0.407,0.211c0.03,0.016,0.063,0.03,0.094,0.046
	c0.055,0.026,0.111,0.052,0.166,0.08c0.212,0.102,0.427,0.202,0.644,0.298c0.046,0.021,0.091,0.041,0.136,0.062
	c0.249,0.108,0.499,0.213,0.751,0.313c0.061,0.025,0.122,0.048,0.183,0.071c0.234,0.091,0.471,0.18,0.709,0.264
	c0.03,0.01,0.059,0.021,0.089,0.03c0.261,0.091,0.525,0.176,0.791,0.259c0.063,0.019,0.127,0.038,0.191,0.058
	c0.27,0.081,0.538,0.178,0.815,0.229c17.708,3.229,22.851-10.641,22.851-10.641c-4.32,5.628-11.988,7.111-19.253,5.46
	c-0.275-0.063-0.542-0.148-0.811-0.228c-0.068-0.021-0.135-0.041-0.202-0.062c-0.262-0.081-0.522-0.165-0.78-0.255
	c-0.036-0.013-0.071-0.025-0.107-0.038c-0.231-0.082-0.46-0.167-0.688-0.255c-0.063-0.026-0.128-0.051-0.192-0.076
	c-0.25-0.099-0.498-0.202-0.744-0.309c-0.05-0.021-0.099-0.045-0.148-0.065c-0.21-0.097-0.419-0.192-0.626-0.292
	c-0.06-0.028-0.12-0.058-0.182-0.087c-0.163-0.079-0.324-0.164-0.485-0.247c-0.107-0.057-0.217-0.11-0.324-0.17
	c-0.196-0.104-0.389-0.214-0.581-0.325c-0.065-0.036-0.131-0.071-0.196-0.109c-0.255-0.15-0.507-0.307-0.757-0.464
	c-0.069-0.044-0.137-0.091-0.204-0.137c-0.181-0.117-0.361-0.235-0.539-0.357c-0.059-0.04-0.116-0.083-0.174-0.122
	c-0.171-0.121-0.34-0.244-0.509-0.368c-0.076-0.057-0.151-0.114-0.226-0.171c-0.154-0.118-0.308-0.236-0.459-0.358
	c-0.068-0.055-0.137-0.11-0.205-0.165c-0.193-0.158-0.384-0.318-0.572-0.481c-0.021-0.018-0.042-0.035-0.063-0.054
	c-0.204-0.179-0.403-0.362-0.601-0.547c-0.058-0.055-0.113-0.107-0.169-0.163c-0.146-0.139-0.291-0.279-0.433-0.424
	c-0.057-0.057-0.114-0.112-0.169-0.169c-0.18-0.184-0.357-0.371-0.53-0.561c-0.009-0.009-0.018-0.019-0.026-0.027
	c-0.184-0.2-0.363-0.406-0.538-0.613c-0.048-0.057-0.094-0.111-0.141-0.167c-0.131-0.158-0.26-0.317-0.387-0.479
	c-0.048-0.058-0.095-0.117-0.142-0.177c-0.152-0.197-0.301-0.395-0.447-0.595c-4.034-5.502-5.482-13.091-2.259-19.323"/>
<path fill="#0868AC" d="M160.789,44.925c-2.647,3.81-2.504,8.911-0.438,12.941c0.346,0.676,0.736,1.331,1.171,1.956
	c0.396,0.568,0.836,1.245,1.363,1.702c0.191,0.21,0.39,0.415,0.594,0.617c0.051,0.053,0.104,0.103,0.156,0.154
	c0.198,0.192,0.399,0.381,0.607,0.564c0.009,0.006,0.017,0.015,0.024,0.021c0.003,0.002,0.005,0.003,0.007,0.006
	c0.229,0.202,0.467,0.396,0.708,0.586c0.054,0.041,0.106,0.083,0.161,0.125c0.242,0.186,0.489,0.368,0.742,0.542
	c0.008,0.005,0.014,0.01,0.021,0.016c0.112,0.077,0.226,0.149,0.339,0.223c0.054,0.035,0.105,0.073,0.16,0.105
	c0.181,0.116,0.363,0.229,0.549,0.337c0.027,0.017,0.052,0.03,0.078,0.046c0.161,0.092,0.323,0.183,0.486,0.271
	c0.057,0.031,0.114,0.06,0.173,0.09c0.112,0.059,0.226,0.118,0.34,0.175c0.017,0.01,0.035,0.017,0.051,0.024
	c0.233,0.114,0.468,0.226,0.708,0.33c0.051,0.023,0.104,0.043,0.156,0.064c0.192,0.081,0.386,0.161,0.582,0.235
	c0.082,0.031,0.167,0.062,0.248,0.091c0.177,0.066,0.355,0.127,0.534,0.187c0.082,0.025,0.161,0.053,0.242,0.077
	c0.254,0.079,0.506,0.179,0.771,0.224c13.671,2.265,16.828-8.262,16.828-8.262c-2.846,4.098-8.355,6.053-14.235,4.527
	c-0.261-0.068-0.519-0.144-0.774-0.224c-0.078-0.024-0.155-0.049-0.232-0.075c-0.182-0.059-0.362-0.121-0.541-0.187
	c-0.083-0.03-0.164-0.06-0.245-0.091c-0.196-0.075-0.391-0.154-0.583-0.235c-0.052-0.022-0.105-0.043-0.157-0.066
	c-0.241-0.104-0.479-0.215-0.713-0.331c-0.121-0.059-0.239-0.121-0.357-0.182c-0.068-0.036-0.138-0.071-0.207-0.106
	c-0.152-0.083-0.303-0.168-0.452-0.255c-0.036-0.021-0.073-0.041-0.108-0.062c-0.185-0.108-0.367-0.219-0.548-0.334
	c-0.056-0.036-0.109-0.074-0.166-0.11c-0.119-0.077-0.238-0.156-0.355-0.235c-0.251-0.174-0.497-0.356-0.739-0.541
	c-0.056-0.044-0.111-0.087-0.167-0.131c-2.574-2.032-4.613-4.809-5.583-7.957c-1.017-3.266-0.797-6.932,0.964-9.906"/>
<path fill="#0868AC" d="M170.348,41.612c-1.561,2.297-1.714,5.15-0.631,7.688c1.143,2.692,3.483,4.806,6.214,5.807
	c0.113,0.042,0.226,0.079,0.339,0.118c0.05,0.015,0.099,0.033,0.149,0.047c0.161,0.05,0.321,0.109,0.487,0.141
	c7.548,1.458,9.596-3.874,10.141-4.659c-1.793,2.583-4.808,3.203-8.506,2.305c-0.292-0.071-0.613-0.177-0.895-0.276
	c-0.361-0.129-0.717-0.275-1.063-0.442c-0.657-0.315-1.283-0.698-1.863-1.137c-3.309-2.511-5.365-7.301-3.206-11.202"/>
<path fill="#0868AC" d="M255.368,86.354l-2.176,4.955h-2.402l0.197-4.503l-1.768,4.503h-2.327l-0.061-4.955l0.257-1.225h1.647
	l-0.318,4.896l1.829-4.896h2.296l-0.166,4.957l1.813-4.957h1.436L255.368,86.354z"/>
<path fill="#0868AC" d="M259.159,87.821c0.211-0.968,0.151-1.148-0.348-1.148h-0.756l-0.483,2.267l-0.74,2.371h-1.405l1.147-5.378
	l0.167-0.786h1.284l0.167,0.362c0,0,0.74-0.438,1.465-0.438c1.542,0,1.421,1.162,1.088,2.749L259.159,87.821L259.159,87.821z"/>
<path fill="#0868AC" d="M263.723,84.359c-0.619,0-1.012-0.181-0.861-0.936c0.166-0.757,0.65-0.938,1.254-0.938
	c0.605,0,1.013,0.181,0.847,0.938C264.81,84.164,264.327,84.359,263.723,84.359L263.723,84.359z M263.058,91.311h-1.39l0.272-2.417
	l0.483-2.236l-0.966-0.212l0.271-1.314h2.644L263.058,91.311L263.058,91.311z"/>
<path fill="#0868AC" d="M269.086,86.442l-1.737,0.212l-0.499,2.357c-0.137,0.649-0.137,0.831,0.438,0.831h1.163l-0.242,1.238
	c0,0-1.058,0.317-1.511,0.317c-1.783,0-1.769-0.981-1.45-2.448l0.483-2.311l-0.967-0.211l0.287-1.314h1.013l0.574-1.558h1.375
	l-0.333,1.558h1.692L269.086,86.442L269.086,86.442z"/>
<path fill="#0868AC" d="M272.697,86.521c-0.814,0-1.238,0.424-1.404,1.18l2.327-0.197C273.724,86.99,273.618,86.521,272.697,86.521z
	 M271.066,88.817c-0.106,0.756,0.181,1.013,1.147,1.013h2.433l-0.241,1.147c0,0-1.466,0.408-2.554,0.408
	c-2.704,0-2.735-1.524-2.387-3.157c0.347-1.603,0.966-3.188,3.579-3.188c2.524,0,2.646,1.525,2.025,3.776H271.066L271.066,88.817z"
	/>
<path fill="#0868AC" d="M280.613,91.31h-1.39l0.272-2.418l0.981-4.593l-0.968-0.227l0.287-1.314h2.646L280.613,91.31L280.613,91.31z
	"/>
<path fill="#0868AC" d="M285.634,86.521c-0.817,0-1.24,0.424-1.406,1.18l2.327-0.197C286.66,86.99,286.555,86.521,285.634,86.521
	L285.634,86.521z M284.001,88.817c-0.105,0.756,0.182,1.013,1.147,1.013h2.434l-0.242,1.147c0,0-1.467,0.408-2.554,0.408
	c-2.705,0-2.734-1.524-2.388-3.157c0.349-1.603,0.968-3.188,3.581-3.188c2.523,0,2.645,1.525,2.025,3.776H284.001L284.001,88.817z"
	/>
<path fill="#0868AC" d="M294.379,86.596c0,0-1.768,0.016-2.251,0.016c-1.027,0-1.133,0.316-1.208,0.648l-0.063,0.302l3.265,0.243
	c0,0,0.016,1.042-0.121,1.631c-0.196,0.982-1.209,1.979-3.036,1.979c-0.907,0-2.372-0.347-2.372-0.347l0.256-1.193h2.252
	c0.997,0,1.134-0.273,1.194-0.544l0.075-0.394l-3.203-0.241c0,0-0.121-0.802,0.045-1.602c0.243-1.09,1.238-2.024,3.067-2.024
	c0.906,0,2.372,0.331,2.372,0.331L294.379,86.596L294.379,86.596z"/>
<path fill="#0868AC" d="M300.454,86.596c0,0-1.768,0.016-2.251,0.016c-1.027,0-1.133,0.316-1.208,0.648l-0.063,0.302l3.266,0.243
	c0,0,0.015,1.042-0.121,1.631c-0.196,0.982-1.209,1.979-3.037,1.979c-0.906,0-2.372-0.347-2.372-0.347l0.257-1.193h2.251
	c0.997,0,1.133-0.273,1.194-0.544l0.075-0.394l-3.203-0.241c0,0-0.121-0.802,0.045-1.602c0.242-1.09,1.238-2.024,3.067-2.024
	c0.906,0,2.372,0.331,2.372,0.331L300.454,86.596L300.454,86.596z"/>
<path fill="#0868AC" d="M302.357,92.293h-1.208l0.045-0.906c-0.438-0.029-0.665-0.347-0.559-0.877
	c0.166-0.755,0.634-0.937,1.254-0.937c0.604,0,1.011,0.182,0.846,0.937L302.357,92.293L302.357,92.293z"/>
<path fill="#0868AC" d="M310.439,86.657c-0.905,0-1.223,0.544-1.435,1.541c-0.212,0.998-0.151,1.586,0.755,1.586h1.254l0.696-3.127
	H310.439z M312.509,90.51l-0.167,0.801l-1.268-0.016l-0.182-0.392c0,0-1.119,0.482-1.873,0.482c-1.935,0-2.025-1.587-1.679-3.188
	c0.348-1.632,1.104-3.174,3.022-3.174c0.695,0,1.632,0.348,1.632,0.348l0.771-2.613h1.391L312.509,90.51z"/>
<path fill="#0868AC" d="M317.512,86.596c-1.179,0-1.558,0.664-1.769,1.631c-0.196,0.982-0.104,1.647,1.058,1.647
	c1.209,0,1.572-0.649,1.783-1.647C318.796,87.29,318.735,86.596,317.512,86.596L317.512,86.596z M316.484,91.401
	c-2.493,0-2.689-1.557-2.356-3.174c0.348-1.616,1.224-3.157,3.717-3.157c2.478,0,2.705,1.541,2.356,3.157
	C319.854,89.875,318.977,91.401,316.484,91.401z"/>
<path fill="#0868AC" d="M330.628,91.31l0.272-2.388l0.136-0.68c0.196-0.906,0.317-1.571-0.635-1.571h-0.74
	c0.03,0.469-0.061,0.998-0.181,1.556l-0.65,3.083h-1.405l0.272-2.388l0.136-0.68c0.196-0.906,0.316-1.571-0.634-1.571h-0.605
	l-0.998,4.639h-1.616l1.314-6.18h1.27l0.196,0.378c0,0,0.861-0.454,1.557-0.454c0.528,0,0.921,0.243,1.058,0.544
	c0.302-0.166,1.163-0.544,1.783-0.544c1.933,0,1.873,1.571,1.525,3.174l-0.649,3.082H330.628L330.628,91.31z"/>
<path fill="#0868AC" d="M337.05,86.596c-1.18,0-1.557,0.664-1.768,1.631c-0.196,0.982-0.104,1.647,1.058,1.647
	c1.208,0,1.571-0.649,1.783-1.647C338.334,87.29,338.274,86.596,337.05,86.596z M336.023,91.401c-2.494,0-2.689-1.557-2.357-3.174
	c0.348-1.616,1.224-3.157,3.717-3.157c2.479,0,2.705,1.541,2.357,3.157C339.392,89.875,338.516,91.401,336.023,91.401z"/>
<path fill="#0868AC" d="M343.938,87.821c0.211-0.968,0.151-1.148-0.347-1.148h-0.757l-0.483,2.267l-0.741,2.371h-1.404l1.147-5.378
	l0.167-0.786h1.284l0.166,0.362c0,0,0.741-0.438,1.467-0.438c1.54,0,1.419,1.162,1.087,2.749L343.938,87.821L343.938,87.821z"/>
<path fill="#0868AC" d="M349.35,86.521c-0.814,0-1.238,0.424-1.404,1.18l2.325-0.197C350.377,86.99,350.271,86.521,349.35,86.521z
	 M347.718,88.817c-0.105,0.756,0.182,1.013,1.148,1.013h2.433l-0.242,1.147c0,0-1.466,0.408-2.553,0.408
	c-2.705,0-2.734-1.524-2.389-3.157c0.348-1.603,0.968-3.188,3.581-3.188c2.522,0,2.646,1.525,2.024,3.776H347.718z"/>
<path fill="#0868AC" d="M353.079,91.401c-0.635,0-1.027-0.181-0.86-0.921c0.149-0.758,0.618-0.938,1.253-0.938
	c0.59,0,0.997,0.18,0.847,0.938C354.152,91.205,353.669,91.401,353.079,91.401z"/>
</svg>
