<?xml version="1.0" encoding="utf-8"?>
<!-- Generator: Adobe Illustrator 16.0.0, SVG Export Plug-In . SVG Version: 6.00 Build 0)  -->
<!DOCTYPE svg PUBLIC "-//W3C//DTD SVG 1.1//EN" "http://www.w3.org/Graphics/SVG/1.1/DTD/svg11.dtd">
<svg version="1.1" xmlns="http://www.w3.org/2000/svg" xmlns:xlink="http://www.w3.org/1999/xlink" x="0px" y="0px" width="250px"
	 height="250px" viewBox="0 0 250 250" enable-background="new 0 0 250 250" xml:space="preserve">
<g id="Layer_1">
	<g id="code_x5F_html5">
	</g>
	<g>
		<polygon fill="#E6A329" points="199.593,61.158 125,61.158 125,61.158 50.407,61.158 64.386,212.816 125,230 125,230 125,230 
			125,230 125,230 185.592,212.816 		"/>
		<polygon fill="#F1BF22" points="125,73.512 125,217.157 125,217.157 174.084,203.243 186.037,73.512 		"/>
		<polygon fill="#FFFFFF" points="164.051,92.122 88.554,92.122 83.307,148.906 83.418,148.551 147.549,148.551 145.456,172.569 
			125,178.468 104.231,172.48 102.985,157.944 84.13,157.944 86.824,186.994 125,197.835 163.176,186.994 168.43,129.986 
			100.38,129.986 101.248,110.976 148.48,110.976 149.175,121.856 168.198,121.856 		"/>
		<g>
			<path fill="#EBEBEB" d="M125,92.122H88.554l-5.247,56.785l0.111-0.355H125v-18.564h-21.995l0.868-19.01H125V92.122z
				 M102.985,157.944H84.13l2.694,29.05L125,197.812v-19.344l-20.769-5.987L102.985,157.944z"/>
		</g>
		<g>
			<polygon points="110.482,38.788 97.216,38.788 97.216,48.315 110.482,48.315 117.585,48.315 119.989,48.315 119.989,20 
				110.482,20 			"/>
			<path d="M152.784,20.144h-23.14c0,0,0,4.978,0,9.915c3.093,3.097,4.71,4.578,9.188,9.056c-2.619,0-9.188,0.009-9.188,0.009v9.045
				h23.14v-9.047l-9.242-9.063h9.242V20.144z"/>
		</g>
	</g>
</g>
<g id="Layer_2">
</g>
</svg>
