<?xml version="1.0" encoding="utf-8"?>
<!-- Generator: Adobe Illustrator 16.0.0, SVG Export Plug-In . SVG Version: 6.00 Build 0)  -->
<!DOCTYPE svg PUBLIC "-//W3C//DTD SVG 1.1//EN" "http://www.w3.org/Graphics/SVG/1.1/DTD/svg11.dtd">
<svg version="1.1" id="Layer_1" xmlns="http://www.w3.org/2000/svg" xmlns:xlink="http://www.w3.org/1999/xlink" x="0px" y="0px"
	 width="250px" height="250px" viewBox="70.5 -24 250 250" enable-background="new 70.5 -24 250 250" xml:space="preserve">
<g transform="translate(0.738281, 121.593)">
	<path fill="#00618A" d="M84.899,26.21h7.248V-2.411l11.22,24.951c1.324,3.02,3.136,4.088,6.69,4.088s5.296-1.068,6.621-4.088
		l11.22-24.951V26.21h7.248V-2.364c0-2.787-1.115-4.135-3.415-4.832c-5.505-1.719-9.199-0.232-10.872,3.484l-11.011,24.625
		L99.186-3.712c-1.603-3.717-5.366-5.203-10.872-3.484c-2.3,0.697-3.415,2.045-3.415,4.832V26.21z"/>
</g>
<g transform="translate(100.444, 142.416)">
	<path fill="#00618A" d="M41.467-17.908h7.247v15.768c-0.068,0.856,0.274,2.867,4.245,2.93c2.025,0.031,15.634,0,15.76,0v-18.775
		h7.263c0.034,0-0.007,25.604-0.006,25.713c0.04,6.314-7.835,7.686-11.465,7.792H41.625v-4.876c0.041,0,22.869,0.005,22.926-0.001
		c4.665-0.492,4.114-2.812,4.114-3.593v-1.9H53.26c-7.167-0.065-11.731-3.193-11.788-6.792
		C41.466-1.978,41.627-17.752,41.467-17.908z"/>
</g>
<g transform="translate(171.496, 124.557)">
	<path fill="#E48E00" d="M10.516,23.246h20.837c2.438,0,4.809-0.511,6.69-1.395c3.136-1.439,4.67-3.391,4.67-5.947v-5.295
		c0-2.092-1.742-4.044-5.158-5.343c-1.813-0.698-4.042-1.069-6.202-1.069h-8.782c-2.926,0-4.32-0.884-4.668-2.834
		c-0.07-0.233-0.07-0.419-0.07-0.65v-3.299c0-0.187,0-0.372,0.07-0.605c0.348-1.485,1.115-1.904,3.693-2.137
		c0.209,0,0.488-0.047,0.697-0.047h20.699v-4.831H22.642c-2.927,0-4.46,0.187-5.854,0.604c-4.32,1.348-6.202,3.485-6.202,7.202
		v4.228c0,3.253,3.694,6.04,9.896,6.69c0.698,0.047,1.395,0.093,2.091,0.093h7.527c0.279,0,0.558,0,0.767,0.047
		c2.301,0.186,3.275,0.604,3.974,1.44c0.417,0.418,0.557,0.837,0.557,1.301v4.229c0,0.511-0.349,1.162-1.045,1.719
		c-0.627,0.558-1.673,0.929-3.066,1.022c-0.279,0-0.488,0.047-0.767,0.047H10.516V23.246z"/>
</g>
<g transform="translate(308.656, 124.557)">
	<path fill="#E48E00" d="M-49.232,14.837c0,4.972,3.693,7.759,11.15,8.316c0.697,0.047,1.395,0.093,2.091,0.093h18.887v-4.831
		H-36.13c-4.25,0-5.854-1.069-5.854-3.625v-24.996h-7.248V14.837z"/>
</g>
<g transform="translate(236.74, 124.666)">
	<path fill="#E48E00" d="M-17.904,14.98V-2.245c0-4.377,3.072-7.031,9.147-7.869c0.629-0.093,1.327-0.14,1.956-0.14H6.958
		c0.697,0,1.327,0.047,2.025,0.14c6.075,0.838,9.148,3.492,9.148,7.869V14.98c0,3.551-1.306,5.451-4.313,6.689l7.141,6.444h-8.416
		L6.766,22.9L0.952,23.27H-6.8c-1.327,0-2.724-0.188-4.26-0.606C-15.669,21.406-17.904,18.985-17.904,14.98z M-10.082,14.562
		c0,0.233,0.069,0.466,0.14,0.745c0.419,2.002,2.305,3.12,5.168,3.12H1.81l-6.048-5.461h8.416l5.274,4.763
		c0.972-0.519,1.612-1.311,1.836-2.328c0.069-0.232,0.069-0.466,0.069-0.698V-1.826c0-0.187,0-0.419-0.069-0.653
		c-0.42-1.861-2.306-2.932-5.099-2.932H-4.774c-3.213,0-5.308,1.396-5.308,3.585V14.562z"/>
</g>
<g transform="translate(241.59, -4.64258)">
	<path fill="#00618A" d="M56.339,110.978c-4.455-0.121-7.858,0.294-10.768,1.521c-0.827,0.349-2.146,0.357-2.28,1.394
		c0.454,0.477,0.524,1.188,0.886,1.773c0.695,1.124,1.868,2.631,2.914,3.421c1.144,0.863,2.322,1.786,3.548,2.534
		c2.181,1.329,4.614,2.089,6.714,3.42c1.237,0.785,2.467,1.774,3.674,2.66c0.597,0.438,0.998,1.119,1.773,1.394
		c0-0.042,0-0.084,0-0.126c-0.407-0.519-0.513-1.232-0.887-1.774c-0.549-0.549-1.098-1.098-1.646-1.646
		c-1.61-2.138-3.655-4.016-5.828-5.574c-1.732-1.244-5.611-2.924-6.334-4.94c-0.042-0.043-0.084-0.085-0.127-0.127
		c1.229-0.139,2.667-0.583,3.802-0.887c1.904-0.511,3.606-0.379,5.573-0.887c0.887-0.254,1.773-0.508,2.661-0.761
		c0-0.169,0-0.337,0-0.507c-0.994-1.02-1.704-2.37-2.788-3.294c-2.836-2.415-5.933-4.828-9.121-6.841
		c-1.769-1.116-3.954-1.842-5.827-2.788c-0.631-0.318-1.738-0.483-2.154-1.013c-0.984-1.255-1.521-2.846-2.28-4.308
		c-1.59-3.062-3.151-6.407-4.561-9.628c-0.961-2.197-1.588-4.363-2.786-6.334c-5.753-9.458-11.945-15.166-21.537-20.777
		c-2.041-1.193-4.498-1.665-7.095-2.28c-1.393-0.084-2.787-0.169-4.181-0.253c-0.851-0.355-1.735-1.396-2.533-1.9
		c-3.178-2.007-11.328-6.374-13.682-0.633c-1.486,3.624,2.222,7.159,3.547,8.995c0.931,1.288,2.122,2.732,2.786,4.181
		c0.438,0.952,0.514,1.906,0.888,2.914c0.921,2.481,1.722,5.181,2.914,7.474c0.602,1.16,1.266,2.383,2.026,3.421
		c0.467,0.636,1.267,0.917,1.394,1.9c-0.782,1.094-0.827,2.793-1.267,4.181c-1.98,6.243-1.233,14.003,1.647,18.623
		c0.883,1.418,2.965,4.46,5.826,3.294c2.504-1.02,1.945-4.18,2.661-6.968c0.162-0.632,0.063-1.097,0.38-1.521
		c0,0.042,0,0.084,0,0.127c0.76,1.52,1.521,3.04,2.281,4.56c1.687,2.718,4.683,5.559,7.221,7.475
		c1.315,0.994,2.353,2.713,4.054,3.294c0-0.042,0-0.084,0-0.127c-0.043,0-0.085,0-0.127,0c-0.329-0.514-0.846-0.727-1.267-1.14
		c-0.992-0.973-2.094-2.181-2.914-3.294c-2.309-3.134-4.349-6.564-6.207-10.135c-0.888-1.705-1.659-3.586-2.407-5.321
		c-0.289-0.669-0.285-1.681-0.887-2.027c-0.819,1.271-2.026,2.299-2.66,3.801c-1.014,2.4-1.145,5.327-1.521,8.361
		c-0.222,0.08-0.123,0.025-0.254,0.126c-1.765-0.425-2.385-2.242-3.04-3.8c-1.658-3.941-1.966-10.287-0.507-14.823
		c0.378-1.173,2.084-4.87,1.394-5.954c-0.33-1.082-1.418-1.708-2.026-2.535c-0.754-1.021-1.506-2.367-2.028-3.547
		c-1.356-3.073-1.99-6.522-3.42-9.628c-0.683-1.485-1.838-2.987-2.787-4.308c-1.05-1.462-2.227-2.539-3.04-4.308
		c-0.29-0.628-0.684-1.634-0.254-2.28c0.137-0.436,0.329-0.618,0.761-0.76c0.734-0.566,2.781,0.188,3.547,0.507
		c2.031,0.844,3.727,1.647,5.447,2.787c0.826,0.548,1.662,1.607,2.66,1.9c0.381,0,0.761,0,1.141,0
		c1.783,0.41,3.781,0.127,5.447,0.633c2.945,0.895,5.584,2.288,7.981,3.801c7.302,4.611,13.271,11.174,17.356,19.003
		c0.656,1.26,0.941,2.463,1.52,3.801c1.168,2.696,2.638,5.471,3.8,8.107c1.159,2.631,2.289,5.286,3.928,7.475
		c0.862,1.151,4.188,1.768,5.701,2.407c1.06,0.448,2.796,0.915,3.801,1.52c1.917,1.157,3.775,2.534,5.574,3.801
		C53.438,108.443,56.201,109.833,56.339,110.978z"/>
</g>
<g transform="translate(272.504, 24.8027)">
	<path fill="#00618A" d="M-31.203,33.264c-0.929-0.017-1.586,0.102-2.28,0.253c0,0.042,0,0.085,0,0.127c0.042,0,0.084,0,0.127,0
		c0.442,0.911,1.225,1.496,1.773,2.281c0.422,0.887,0.845,1.773,1.267,2.66c0.042-0.042,0.085-0.084,0.127-0.126
		c0.784-0.553,1.144-1.438,1.14-2.788c-0.314-0.331-0.36-0.746-0.634-1.14C-30.045,34.005-30.746,33.706-31.203,33.264z"/>
</g>
<g transform="translate(371.609, 165.56)">
	<path fill="#E48E00" d="M-76.655-22.726c0,3.191,2.521,5.341,5.342,5.341s5.341-2.149,5.341-5.341s-2.521-5.341-5.341-5.341
		S-76.655-25.917-76.655-22.726z M-67.167-22.726c0,2.42-1.852,4.23-4.146,4.23c-2.321,0-4.145-1.811-4.145-4.23
		c0-2.422,1.823-4.231,4.145-4.231C-69.019-26.957-67.167-25.148-67.167-22.726z M-69.873-19.678h1.195l-1.751-2.678
		c0.94-0.1,1.651-0.556,1.651-1.667c0-1.239-0.782-1.751-2.292-1.751h-2.38v6.096h1.026v-2.636h0.954L-69.873-19.678z
		 M-72.423-23.167v-1.753h1.182c0.612,0,1.354,0.114,1.354,0.827c0,0.854-0.67,0.926-1.438,0.926H-72.423z"/>
</g>
</svg>
