<?xml version="1.0" encoding="utf-8"?>
<!-- Generator: Adobe Illustrator 16.0.0, SVG Export Plug-In . SVG Version: 6.00 Build 0)  -->
<!DOCTYPE svg PUBLIC "-//W3C//DTD SVG 1.1//EN" "http://www.w3.org/Graphics/SVG/1.1/DTD/svg11.dtd">
<svg version="1.1"
	 id="svg3430" xmlns:svg="http://www.w3.org/2000/svg" xmlns:rdf="http://www.w3.org/1999/02/22-rdf-syntax-ns#" xmlns:cc="http://creativecommons.org/ns#" xmlns:dc="http://purl.org/dc/elements/1.1/"
	 xmlns="http://www.w3.org/2000/svg" xmlns:xlink="http://www.w3.org/1999/xlink" x="0px" y="0px" width="250px" height="250px"
	 viewBox="230.601 66.799 250 250" enable-background="new 230.601 66.799 250 250" xml:space="preserve">
<title  id="title3510">Official PHP Logo</title>
<g id="g3438" transform="matrix(1.25,0,0,-1.25,-4.4,394.29875)">
	<g id="g3440">
		<g>
			<defs>
				<path id="SVGID_1_" d="M203.52,162c0-24.543,37.823-44.44,84.48-44.44l0,0c46.656,0,84.48,19.897,84.48,44.44l0,0
					c0,24.543-37.824,44.439-84.48,44.439l0,0C241.344,206.439,203.52,186.543,203.52,162"/>
			</defs>
			<clipPath id="SVGID_2_">
				<use xlink:href="#SVGID_1_"  overflow="visible"/>
			</clipPath>
			<g id="g3442" clip-path="url(#SVGID_2_)">
				<g id="g3448">
					<g id="g3450">
						
							<radialGradient id="path3462_1_" cx="204.4663" cy="78.1476" r="0.3057" gradientTransform="matrix(453.8223 0 0 -453.8223 -92537.1875 35655.7813)" gradientUnits="userSpaceOnUse">
							<stop  offset="0" style="stop-color:#AEB2D5"/>
							<stop  offset="0.3" style="stop-color:#AEB2D5"/>
							<stop  offset="0.75" style="stop-color:#484C89"/>
							<stop  offset="1" style="stop-color:#484C89"/>
						</radialGradient>
						<path id="path3462" fill="url(#path3462_1_)" d="M203.52,162c0-24.543,37.823-44.44,84.48-44.44l0,0
							c46.656,0,84.48,19.897,84.48,44.44l0,0c0,24.543-37.824,44.439-84.48,44.439l0,0C241.344,206.439,203.52,186.543,203.52,162"
							/>
					</g>
				</g>
			</g>
		</g>
	</g>
	<g id="g3464">
		<g>
			<defs>
				<rect id="SVGID_3_" x="178" y="100.125" width="220" height="123.75"/>
			</defs>
			<clipPath id="SVGID_4_">
				<use xlink:href="#SVGID_3_"  overflow="visible"/>
			</clipPath>
			<g id="g3466" clip-path="url(#SVGID_4_)">
				<g id="g3472" transform="translate(288,27.3594)">
					<path id="path3474" fill="#777BB3" d="M0,93.5c44.834,0,81.18,18.42,81.18,41.141S44.834,175.781,0,175.781
						c-44.834,0-81.18-18.419-81.18-41.14S-44.834,93.5,0,93.5"/>
				</g>
			</g>
		</g>
	</g>
	<g id="g3476">
		<g>
			<defs>
				<rect id="SVGID_5_" x="178" y="100.125" width="220" height="123.75"/>
			</defs>
			<clipPath id="SVGID_6_">
				<use xlink:href="#SVGID_5_"  overflow="visible"/>
			</clipPath>
			<g id="g3478" clip-path="url(#SVGID_6_)">
				<g id="g3484" transform="translate(161.7344,145.3066)">
					<path id="path3486" d="M87.685,11.593c3.686,0,6.438,0.68,8.18,2.02c1.723,1.327,2.913,3.624,3.536,6.83
						c0.582,2.996,0.36,5.088-0.659,6.218c-1.041,1.153-3.291,1.738-6.689,1.738h-5.891l-3.266-16.805H87.685z M68.415-9.109
						c-0.273,0-0.533,0.123-0.707,0.334c-0.174,0.211-0.245,0.49-0.193,0.758l8.656,44.535c0.084,0.431,0.461,0.742,0.9,0.742
						h18.655c5.863,0,10.227-1.592,12.97-4.732c2.757-3.157,3.609-7.569,2.53-13.115c-0.439-2.259-1.193-4.357-2.243-6.236
						c-1.05-1.88-2.439-3.62-4.128-5.173c-2.022-1.892-4.31-3.264-6.795-4.07c-2.445-0.798-5.586-1.201-9.334-1.201h-7.554
						L79.016-8.367c-0.084-0.43-0.461-0.742-0.9-0.742H68.415z"/>
				</g>
				<g id="g3488" transform="translate(159.2236,197.3071)">
					<path id="path3490" fill="#FFFFFF" d="M89.428-24.519h5.136c4.101,0,5.525-0.9,6.009-1.436c0.803-0.89,0.954-2.768,0.438-5.429
						c-0.58-2.979-1.655-5.091-3.195-6.277c-1.577-1.215-4.142-1.83-7.621-1.83h-3.677L89.428-24.519z M98.237-13.824H79.582
						c-0.878,0-1.632-0.622-1.8-1.484l-8.656-44.535c-0.105-0.537,0.037-1.093,0.385-1.516s0.867-0.667,1.414-0.667h9.702
						c0.878,0,1.632,0.623,1.8,1.484l2.013,10.356h6.798c3.844,0,7.081,0.42,9.619,1.247c2.61,0.848,5.011,2.285,7.136,4.272
						c1.757,1.618,3.205,3.432,4.302,5.395c1.098,1.965,1.886,4.154,2.343,6.509c1.135,5.837,0.213,10.512-2.741,13.893
						C108.973-15.522,104.377-13.824,98.237-13.824 M84.294-41.324h5.901c3.911,0,6.825,0.737,8.739,2.209
						c1.914,1.475,3.205,3.935,3.877,7.382c0.642,3.309,0.349,5.645-0.877,7.006c-1.228,1.361-3.685,2.041-7.37,2.041h-6.647
						L84.294-41.324 M98.237-15.658c5.612,0,9.707-1.473,12.28-4.419c2.573-2.945,3.348-7.057,2.321-12.336
						c-0.423-2.175-1.137-4.163-2.143-5.964c-1.007-1.803-2.323-3.45-3.948-4.945c-1.938-1.813-4.089-3.105-6.457-3.875
						c-2.368-0.771-5.384-1.155-9.051-1.155h-8.31l-2.301-11.84h-9.702l8.656,44.534H98.237"/>
				</g>
				<g id="g3492" transform="translate(311.583,116.3066)">
					<path id="path3494" d="M-16.378,31.732c-0.273,0-0.533,0.122-0.707,0.334c-0.174,0.211-0.245,0.489-0.192,0.757l3.829,19.705
						c0.364,1.874,0.274,3.219-0.253,3.787c-0.323,0.347-1.291,0.93-4.158,0.93h-6.936l-4.814-24.771
						c-0.084-0.431-0.461-0.742-0.9-0.742h-9.625c-0.273,0-0.533,0.122-0.707,0.334c-0.174,0.211-0.245,0.49-0.193,0.757
						l8.656,44.536c0.083,0.43,0.461,0.741,0.9,0.741h9.625c0.274,0,0.534-0.122,0.708-0.334c0.174-0.211,0.245-0.489,0.192-0.758
						l-2.089-10.749h7.463c5.684,0,9.54-1.003,11.784-3.064c2.289-2.104,3.003-5.467,2.123-9.998l-4.027-20.724
						c-0.084-0.431-0.461-0.742-0.901-0.742H-16.378z"/>
				</g>
				<g id="g3496" transform="translate(293.6611,271.0571)">
					<path id="path3498" fill="#FFFFFF" d="M-3.932-75.734h-9.625c-0.878,0-1.632-0.622-1.8-1.484l-8.656-44.535
						c-0.105-0.537,0.037-1.093,0.385-1.516c0.348-0.422,0.868-0.667,1.415-0.667h9.625c0.878,0,1.632,0.623,1.8,1.484l4.67,24.03
						h6.18c2.862,0,3.462-0.611,3.486-0.637c0.173-0.186,0.402-1.052,0.025-2.988l-3.829-19.705
						c-0.105-0.537,0.037-1.093,0.385-1.516c0.348-0.422,0.866-0.667,1.414-0.667h9.778c0.877,0,1.632,0.623,1.8,1.484l4.027,20.724
						c0.945,4.865,0.137,8.514-2.402,10.847c-2.422,2.225-6.48,3.306-12.405,3.306h-6.351l1.877,9.657
						c0.105,0.537-0.036,1.094-0.384,1.516S-3.383-75.734-3.932-75.734 M-3.932-77.568l-2.301-11.84h8.574
						c5.395,0,9.116-0.941,11.165-2.823c2.048-1.882,2.662-4.932,1.843-9.147l-4.027-20.725H1.544l3.83,19.705
						c0.435,2.241,0.275,3.771-0.481,4.586c-0.757,0.815-2.367,1.223-4.83,1.223h-7.692l-4.958-25.514h-9.625l8.655,44.535H-3.932"
						/>
				</g>
				<g id="g3500" transform="translate(409.5498,145.3066)">
					<path id="path3502" d="M-84.409,11.593c3.686,0,6.438,0.68,8.18,2.02c1.723,1.326,2.912,3.624,3.537,6.83
						c0.58,2.996,0.36,5.088-0.659,6.218c-1.041,1.153-3.292,1.738-6.69,1.738h-5.891l-3.266-16.805H-84.409z M-103.679-9.109
						c-0.273,0-0.533,0.123-0.707,0.334c-0.173,0.211-0.245,0.49-0.193,0.758l8.656,44.535c0.084,0.431,0.461,0.742,0.899,0.742
						h18.656c5.863,0,10.227-1.592,12.97-4.732c2.758-3.156,3.609-7.569,2.531-13.115c-0.44-2.259-1.194-4.357-2.244-6.236
						c-1.051-1.88-2.439-3.62-4.128-5.173c-2.022-1.892-4.309-3.264-6.794-4.07c-2.446-0.798-5.586-1.201-9.334-1.201h-7.555
						l-2.155-11.098c-0.084-0.43-0.462-0.742-0.901-0.742H-103.679z"/>
				</g>
				<g id="g3504" transform="translate(407.0391,197.3071)">
					<path id="path3506" fill="#FFFFFF" d="M-82.667-24.519h5.136c4.102,0,5.526-0.9,6.01-1.436c0.802-0.89,0.954-2.768,0.438-5.428
						c-0.58-2.98-1.655-5.092-3.195-6.278c-1.577-1.215-4.141-1.83-7.62-1.83h-3.677L-82.667-24.519z M-73.856-13.824h-18.656
						c-0.877,0-1.632-0.622-1.798-1.484l-8.656-44.535c-0.105-0.537,0.037-1.093,0.384-1.516c0.348-0.423,0.868-0.667,1.416-0.667
						h9.701c0.877,0,1.632,0.623,1.8,1.484l2.012,10.356h6.798c3.845,0,7.081,0.42,9.618,1.247c2.61,0.848,5.012,2.285,7.137,4.273
						c1.758,1.617,3.205,3.431,4.302,5.395c1.097,1.965,1.884,4.154,2.343,6.509c1.134,5.838,0.212,10.512-2.741,13.893
						C-63.122-15.522-67.717-13.824-73.856-13.824 M-87.799-41.324h5.901c3.911,0,6.824,0.737,8.738,2.209
						c1.916,1.475,3.206,3.935,3.877,7.382c0.642,3.309,0.35,5.645-0.877,7.006c-1.229,1.361-3.685,2.041-7.37,2.041h-6.647
						L-87.799-41.324 M-73.856-15.658c5.612,0,9.706-1.473,12.279-4.419c2.573-2.945,3.348-7.057,2.321-12.336
						c-0.422-2.175-1.137-4.163-2.142-5.964c-1.008-1.803-2.323-3.45-3.949-4.945c-1.937-1.813-4.089-3.105-6.457-3.875
						c-2.369-0.771-5.384-1.155-9.051-1.155h-8.31l-2.301-11.84h-9.701l8.655,44.534H-73.856"/>
				</g>
			</g>
		</g>
	</g>
</g>
</svg>
