<?xml version="1.0" encoding="utf-8"?>
<!-- Generator: Adobe Illustrator 16.0.0, SVG Export Plug-In . SVG Version: 6.00 Build 0)  -->
<!DOCTYPE svg PUBLIC "-//W3C//DTD SVG 1.1//EN" "http://www.w3.org/Graphics/SVG/1.1/DTD/svg11.dtd">
<svg version="1.1" id="Layer_1" xmlns="http://www.w3.org/2000/svg" xmlns:xlink="http://www.w3.org/1999/xlink" x="0px" y="0px"
	 width="250px" height="250px" viewBox="145 -63.739 250 250" enable-background="new 145 -63.739 250 250" xml:space="preserve">
<g id="Layer_1_1_">
</g>
<g id="Layer_2">
	<g>
		<g>
			<path fill="#464342" d="M197.081,65.856c0,28.861,16.773,53.803,41.096,65.623L203.394,36.18
				C199.348,45.249,197.081,55.285,197.081,65.856z"/>
			<path fill="#464342" d="M319.223,62.177c0-9.013-3.237-15.253-6.016-20.111c-3.694-6.006-7.158-11.093-7.158-17.099
				c0-6.703,5.083-12.942,12.242-12.942c0.325,0,0.631,0.041,0.946,0.058c-12.974-11.884-30.257-19.141-49.24-19.141
				c-25.474,0-47.885,13.069-60.924,32.867c1.711,0.051,3.324,0.086,4.692,0.086c7.627,0,19.433-0.925,19.433-0.925
				c3.931-0.232,4.396,5.542,0.469,6.006c0,0-3.951,0.465-8.347,0.695l26.554,78.981l15.957-47.857l-11.361-31.126
				c-3.927-0.231-7.646-0.695-7.646-0.695c-3.929-0.23-3.468-6.238,0.46-6.006c0,0,12.042,0.925,19.207,0.925
				c7.625,0,19.433-0.925,19.433-0.925c3.933-0.232,4.396,5.542,0.467,6.006c0,0-3.957,0.464-8.345,0.695l26.352,78.383
				l7.271-24.304C316.823,75.661,319.223,68.419,319.223,62.177z"/>
			<path fill="#464342" d="M271.277,72.233L249.4,135.804c6.532,1.921,13.439,2.972,20.598,2.972c8.492,0,16.634-1.469,24.214-4.134
				c-0.195-0.312-0.374-0.644-0.52-1.005L271.277,72.233z"/>
			<path fill="#464342" d="M333.979,30.871c0.313,2.324,0.491,4.816,0.491,7.498c0,7.399-1.382,15.717-5.544,26.119l-22.273,64.396
				c21.679-12.642,36.258-36.127,36.258-63.026C342.912,53.179,339.674,41.258,333.979,30.871z"/>
			<path fill="#464342" d="M269.998-19.141c-46.868,0-84.999,38.13-84.999,84.998c0,46.871,38.131,84.999,84.999,84.999
				c46.866,0,85.001-38.128,85.001-84.999C354.998,18.989,316.864-19.141,269.998-19.141z M269.998,146.959
				c-44.717,0-81.102-36.383-81.102-81.103c0-44.719,36.381-81.099,81.102-81.099c44.717,0,81.097,36.38,81.097,81.099
				C351.095,110.576,314.715,146.959,269.998,146.959z"/>
		</g>
	</g>
</g>
</svg>
